# xmcd
#
# Track frame offsets:
#	150
#	25200
#	43232
#	62247
#	84900
#	113285
#	138540
#	167742
#	184727
#
# Disc length: 2913 seconds
#
# Revision: 1
# Processed by: cddbd v1.5.2PL0 Copyright (c) Steve Scherf et al.
# Submitted via: audiograbber 1.83.01
#
DISCID=710b5f09
DTITLE=Howlin' Wolf - Rockin' The Blues
DYEAR=1900
DGENRE=
TTITLE0=Rockin' The Blues
TTITLE1=All My Life
TTITLE2=Howling For My Darlin'
TTITLE3=Dust My Broom
TTITLE4=Going Down Slow
TTITLE5=I Didn't Mean to Hurt Your Feelings
TTITLE6=Love Me
TTITLE7=Shake It For Me
TTITLE8=Forty-Four
EXTD=
EXTT0=
EXTT1=
EXTT2=
EXTT3=
EXTT4=
EXTT5=
EXTT6=
EXTT7=
EXTT8=
PLAYORDER=
